# xmcd
#
# Track frame offsets: 
#        150
#        15815
#        35025
#        46647
#        58937
#        67307
#        84255
#        98385
#        108892
#        118537
#        134095
#        145795
#        158542
#
# Disc length: 2253 seconds
#
# Revision: 1
# Processed by: cddbd v1.5.2PL0 Copyright (c) Steve Scherf et al.
# Submitted via: ExactAudioCopyFreeDBPlugin 1.0
#
DISCID=a008cb0d
DTITLE=Kingsnakes - Come On, Ca Va!?
DYEAR=1997
DGENRE=Blues
TTITLE0=Come On, Ca Va!?
TTITLE1=Springtime In Alabama
TTITLE2=Belleville Cat
TTITLE3=Good Push
TTITLE4=Sweeter Than Wine
TTITLE5=We're Gonna Close Up
TTITLE6=Hard Things To Say
TTITLE7=Angelina
TTITLE8=Love Me Sometimes
TTITLE9=Too Much Funkiness (In The Neighbourhood)
TTITLE10=Workin' All Night
TTITLE11=She Don't Need No Guitar Man
TTITLE12=What A Nice Way
EXTD=
EXTT0=
EXTT1=
EXTT2=
EXTT3=
EXTT4=
EXTT5=
EXTT6=
EXTT7=
EXTT8=
EXTT9=
EXTT10=
EXTT11=
EXTT12=
PLAYORDER=
